<svg id="Capa_1" enable-background="new 0 0 512 512" height="512" viewBox="0 0 512 512" width="512" xmlns="http://www.w3.org/2000/svg"><g><g><path d="m287.131 441.341h-194.957c-19.369 0-35.071-15.702-35.071-35.071v-339.143c0-19.369 15.702-35.071 35.071-35.071h194.958c19.369 0 35.071 15.702 35.071 35.071v339.143c-.001 19.369-15.703 35.071-35.072 35.071z" fill="#f9fbfc"/><path d="m467.081 160.436h-213.039c-7.561 0-13.691-6.13-13.691-13.691v-70.771c0-7.561 6.13-13.691 13.691-13.691h213.039c7.561 0 13.691 6.13 13.691 13.691v70.771c0 7.561-6.129 13.691-13.691 13.691z" fill="#e9c278"/><path d="m467.081 400.134h-213.039c-7.561 0-13.691-6.13-13.691-13.691v-70.771c0-7.561 6.13-13.691 13.691-13.691h213.039c7.561 0 13.691 6.13 13.691 13.691v70.771c0 7.561-6.129 13.691-13.691 13.691z" fill="#e9c278"/><path d="m378.569 280.285h-213.04c-7.561 0-13.691-6.13-13.691-13.691v-70.771c0-7.561 6.13-13.691 13.691-13.691h213.039c7.561 0 13.691 6.13 13.691 13.691v70.771c0 7.561-6.129 13.691-13.69 13.691z" fill="#eaa895"/><path d="m203.062 262.393c-17.225 0-31.189-13.964-31.189-31.189 0-17.225 13.964-31.189 31.189-31.189 17.225 0 31.189 13.964 31.189 31.189 0 17.226-13.964 31.189-31.189 31.189z" fill="#31373d"/><path d="m428.554 142.544c-17.225 0-31.189-13.964-31.189-31.189 0-17.225 13.964-31.189 31.189-31.189 17.225 0 31.189 13.964 31.189 31.189 0 17.226-13.964 31.189-31.189 31.189z" fill="#31373d"/><path d="m428.554 382.242c-17.225 0-31.189-13.964-31.189-31.189 0-17.225 13.964-31.189 31.189-31.189 17.225 0 31.189 13.964 31.189 31.189 0 17.226-13.964 31.189-31.189 31.189z" fill="#31373d"/><g fill="#f9fbfc"><path d="m203.062 239.374c-6.597 0-11.945-5.348-11.945-11.945v-4.268c0-6.597 5.348-11.945 11.945-11.945 6.597 0 11.945 5.348 11.945 11.945v4.268c0 6.597-5.348 11.945-11.945 11.945z"/><path d="m221.24 256.551c-2.47-7.682-9.675-13.241-18.178-13.241s-15.707 5.559-18.177 13.241c0 0 7.657 6.079 18.177 5.842 10.521-.236 18.178-5.842 18.178-5.842z"/><path d="m428.554 119.525c-6.597 0-11.945-5.348-11.945-11.945v-4.268c0-6.597 5.348-11.945 11.945-11.945 6.597 0 11.945 5.348 11.945 11.945v4.268c0 6.597-5.348 11.945-11.945 11.945z"/><path d="m446.732 136.702c-2.47-7.682-9.675-13.241-18.177-13.241-8.503 0-15.708 5.559-18.178 13.241 0 0 7.657 6.079 18.178 5.842 10.519-.236 18.177-5.842 18.177-5.842z"/><path d="m428.554 359.223c-6.597 0-11.945-5.348-11.945-11.945v-4.268c0-6.597 5.348-11.945 11.945-11.945 6.597 0 11.945 5.348 11.945 11.945v4.268c0 6.597-5.348 11.945-11.945 11.945z"/><path d="m446.732 376.4c-2.47-7.682-9.675-13.241-18.177-13.241-8.503 0-15.708 5.559-18.178 13.241 0 0 7.657 6.079 18.178 5.842 10.519-.236 18.177-5.842 18.177-5.842z"/></g></g><g><g fill="#31373d"><path d="m467.082 164.485c9.781 0 17.739-7.958 17.739-17.74v-70.771c0-9.782-7.958-17.74-17.739-17.74h-115.151c-2.371-32.505-29.549-58.234-62.649-58.234h-199.259c-34.652 0-62.844 28.192-62.844 62.844v386.313c0 34.652 28.192 62.844 62.844 62.844h199.259c34.652 0 62.844-28.192 62.844-62.844v-44.974h114.956c9.781 0 17.739-7.958 17.739-17.74v-70.771c0-9.782-7.958-17.74-17.739-17.74h-114.956v-13.598h26.443c9.781 0 17.739-7.958 17.739-17.74v-70.771c0-9.782-7.958-17.74-17.739-17.74h-26.443v-13.598zm-301.553 119.848h152.625v13.598h-64.112c-9.781 0-17.739 7.958-17.739 17.74v70.771c0 9.782 7.958 17.74 17.739 17.74h64.112v2.087c0 17.106-13.917 31.022-31.023 31.022h-194.957c-17.106 0-31.022-13.917-31.022-31.022v-339.141c0-17.106 13.917-31.023 31.022-31.023h194.958c14.015 0 25.885 9.345 29.718 22.129h-62.807c-9.781 0-17.739 7.958-17.739 17.74v70.771c0 9.782 7.958 17.74 17.739 17.74h64.112v13.598h-152.626c-9.781 0-17.739 7.958-17.739 17.74v70.771c0 9.782 7.958 17.739 17.739 17.739zm311.195-208.359v70.771c0 5.317-4.325 9.643-9.642 9.643h-213.04c-5.317 0-9.642-4.326-9.642-9.643v-70.771c0-5.317 4.325-9.643 9.642-9.643h213.04c5.316 0 9.642 4.326 9.642 9.643zm0 239.697v70.771c0 5.317-4.325 9.643-9.642 9.643h-213.04c-5.317 0-9.642-4.326-9.642-9.643v-70.771c0-5.317 4.325-9.643 9.642-9.643h213.04c5.316 0 9.642 4.327 9.642 9.643zm-88.513-119.848v70.771c0 5.317-4.325 9.643-9.642 9.643h-213.04c-5.317 0-9.642-4.326-9.642-9.643v-70.771c0-5.317 4.325-9.643 9.642-9.643h213.04c5.317 0 9.642 4.326 9.642 9.643z"/><path d="m203.062 266.442c19.429 0 35.237-15.808 35.237-35.237 0-19.43-15.808-35.238-35.237-35.238s-35.237 15.808-35.237 35.238c0 19.429 15.808 35.237 35.237 35.237zm0-62.378c14.965 0 27.14 12.175 27.14 27.141 0 14.965-12.175 27.14-27.14 27.14s-27.14-12.175-27.14-27.14c0-14.966 12.176-27.141 27.14-27.141z"/><path d="m428.554 146.593c19.429 0 35.237-15.808 35.237-35.237 0-19.43-15.808-35.238-35.237-35.238s-35.237 15.808-35.237 35.238 15.808 35.237 35.237 35.237zm0-62.378c14.965 0 27.14 12.175 27.14 27.141 0 14.965-12.175 27.14-27.14 27.14s-27.14-12.175-27.14-27.14 12.176-27.141 27.14-27.141z"/><path d="m428.554 386.291c19.429 0 35.237-15.808 35.237-35.237s-15.808-35.237-35.237-35.237-35.237 15.808-35.237 35.237 15.808 35.237 35.237 35.237zm0-62.377c14.965 0 27.14 12.175 27.14 27.14s-12.175 27.14-27.14 27.14-27.14-12.175-27.14-27.14 12.176-27.14 27.14-27.14z"/><path d="m272.049 115.408h88.513c2.236 0 4.049-1.813 4.049-4.049s-1.813-4.049-4.049-4.049h-88.513c-2.236 0-4.049 1.813-4.049 4.049s1.813 4.049 4.049 4.049z"/><path d="m272.049 221.178h88.513c2.236 0 4.049-1.813 4.049-4.049s-1.813-4.049-4.049-4.049h-88.513c-2.236 0-4.049 1.813-4.049 4.049s1.813 4.049 4.049 4.049z"/><path d="m272.049 249.336h88.513c2.236 0 4.049-1.813 4.049-4.049s-1.813-4.049-4.049-4.049h-88.513c-2.236 0-4.049 1.813-4.049 4.049s1.813 4.049 4.049 4.049z"/><path d="m272.049 341.026h88.513c2.236 0 4.049-1.813 4.049-4.049s-1.813-4.049-4.049-4.049h-88.513c-2.236 0-4.049 1.813-4.049 4.049 0 2.237 1.813 4.049 4.049 4.049z"/><path d="m272.049 369.184h51.424c2.236 0 4.049-1.813 4.049-4.048s-1.813-4.049-4.049-4.049h-51.424c-2.236 0-4.049 1.813-4.049 4.049s1.813 4.048 4.049 4.048z"/></g><path d="m214.375 488.382h-49.445c-7.23 0-13.091-5.861-13.091-13.091v-1.127c0-7.23 5.861-13.091 13.091-13.091h49.445c7.23 0 13.091 5.861 13.091 13.091v1.127c0 7.23-5.861 13.091-13.091 13.091z" fill="#f9fbfc"/></g></g></svg>