<svg xmlns="http://www.w3.org/2000/svg" width="231.345" height="104.378" viewBox="0 0 231.345 104.378">
  <g id="Layer_2" data-name="Layer 2" transform="translate(1.5 1.466)">
    <g id="Layer_3" data-name="Layer 3" transform="translate(0.5 0.5)">
      <path id="Path_1" data-name="Path 1" d="M165.5,1.79c-10.4,1.273-39.9,8.619-39.9,8.619a10.28,10.28,0,0,0-4.255,1.527,10.135,10.135,0,0,0-3.249,3.5c-7.37,11.625-13.953,21.748-20.293,31.409C96.6,49.662,96,51.7,96.975,52.134c.63.788,3.491-.085,5.928-1.418,2.873-1.576,8.328-8.595,8.328-8.595l11.044-12.68a14.716,14.716,0,0,1,4.17-3.637c1.127-.509,2.631-1.273,1.758,1.115-1.212,3.467-3.188,9.116-4.352,12.789a22.51,22.51,0,0,0-1.115,5.9,6.522,6.522,0,0,0,.376,3.455c.667,1.212,2.909,1.661,2.909,1.661s.776.449,2.424-.824a8.692,8.692,0,0,0,2.049-3.891l1.382-4.364,3.431-9.7.921-3.334-3.54,13.092c-1.309,4.243-1.818,7.273-1.394,8.777a6.183,6.183,0,0,0,2.849,1.661s2.218.412,3.2-.57a4.425,4.425,0,0,0,1.673-2.764l1.661-4.582,2.085-5.7,2.643-6.958L140.264,47.7a5.709,5.709,0,0,0,0,3.988,3.637,3.637,0,0,0,1.988,1.3,9.043,9.043,0,0,0,3.891-.691c1.782-.909,2.994-2.909,4.17-5.007l4.17-7.649,2.509-4.994,1.1-1.673,15.565-15.844a59.812,59.812,0,0,0,4.449-5.843c.752-1.758-.546-3.419-1.806-5.552a14.62,14.62,0,0,0-4.849-3.637C169.673,1.2,167.224,1.523,165.5,1.79Z" transform="translate(19.873 -0.286)" fill="none" stroke="#059669" stroke-miterlimit="10" stroke-width="4"/>
      <path id="Path_2" data-name="Path 2" d="M113.36,29.57a86.429,86.429,0,0,0,2.206,10.11c.8,3.1,1.394,5.491,2.849,6.74,1.794,1.54,4.025-1.673,4.025-1.673" transform="translate(23.454 5.67)" fill="none" stroke="#059669" stroke-miterlimit="10" stroke-width="4"/>
      <path id="Path_3" data-name="Path 3" d="M120.17,13.3c10.486-.279,20.5,4.849,25.154,8.571" transform="translate(24.899 2.215)" fill="none" stroke="#059669" stroke-miterlimit="10" stroke-width="4"/>
      <path id="Path_4" data-name="Path 4" d="M24.357,15.45C-6.6,22.808-8.289,74.1,24.357,82.124" transform="translate(-0.5 2.674)" fill="none" stroke="#059669" stroke-miterlimit="10" stroke-width="4"/>
      <path id="Path_5" data-name="Path 5" d="M168.36,15.45c30.961,7.358,32.646,58.649,0,66.674" transform="translate(35.127 2.674)" fill="none" stroke="#059669" stroke-miterlimit="10" stroke-width="4"/>
      <text id="SINABRO" transform="translate(33.118 93.412)" fill="#059669" font-size="41" font-family="TrebuchetMS, Trebuchet MS"><tspan x="0" y="0">SINABRO</tspan></text>
      <path id="Path_6" data-name="Path 6" d="M37.348.791C47.749,2.064,77.207,9.41,77.207,9.41a10.353,10.353,0,0,1,4.316,1.527,10.134,10.134,0,0,1,3.225,3.5c7.358,11.589,13.941,21.711,20.342,31.373,1.212,2.812,1.806,4.849.836,5.285-.63.788-3.479-.085-5.916-1.418-2.934-1.576-8.389-8.571-8.389-8.571l-11.044-12.7a14.911,14.911,0,0,0-4.17-3.637c-1.127-.509-2.643-1.273-1.77,1.115,1.273,3.479,3.188,9.165,4.364,12.8a22.245,22.245,0,0,1,1.1,5.9,6.377,6.377,0,0,1-.364,3.455c-.679,1.212-2.922,1.661-2.922,1.661s-.764.449-2.424-.824a8.825,8.825,0,0,1-2.037-3.891l-1.333-4.364-3.419-9.7-.933-3.334,3.54,13.092c1.309,4.243,1.83,7.273,1.394,8.777A6.134,6.134,0,0,1,68.721,51.1s-2.218.412-3.2-.57a4.364,4.364,0,0,1-1.649-2.764L62.2,43.183l-2.061-5.71L57.5,30.515,62.66,46.65a5.71,5.71,0,0,1,0,3.988,3.637,3.637,0,0,1-1.988,1.3,9.068,9.068,0,0,1-3.891-.691c-1.77-.909-2.994-2.909-4.17-5.007l-4.17-7.649-2.473-4.994-1.115-1.673L29.287,16.077a59.811,59.811,0,0,1-4.449-5.843c-.739-1.758.558-3.419,1.806-5.552a14.62,14.62,0,0,1,4.849-3.637C33.178.2,35.627.524,37.348.791Z" transform="translate(4.619 -0.5)" fill="none" stroke="#059669" stroke-miterlimit="10" stroke-width="4"/>
      <path id="Path_7" data-name="Path 7" d="M76.772,28.57a91.781,91.781,0,0,1-2.206,10.11c-.8,3.1-1.394,5.491-2.849,6.74-1.794,1.54-4.037-1.673-4.037-1.673" transform="translate(13.758 5.458)" fill="none" stroke="#059669" stroke-miterlimit="10" stroke-width="4"/>
      <path id="Path_8" data-name="Path 8" d="M72.774,12.3c-10.5-.279-20.5,4.849-25.154,8.571" transform="translate(9.501 2.003)" fill="none" stroke="#059669" stroke-miterlimit="10" stroke-width="4"/>
    </g>
  </g>
</svg>
