<svg xmlns="http://www.w3.org/2000/svg" viewBox="0 0 188.54 89.65"><defs><style>.cls-1{fill:none;stroke:#000;stroke-miterlimit:10;}.cls-2{font-size:36px;font-family:TrebuchetMS, Trebuchet MS;}</style></defs><g id="Layer_2" data-name="Layer 2"><g id="Layer_3" data-name="Layer 3"><path class="cls-1" d="M153.42,1.74c-8.58,1.05-32.91,7.11-32.91,7.11A8.48,8.48,0,0,0,117,10.11,8.36,8.36,0,0,0,114.32,13c-6.08,9.59-11.51,17.94-16.74,25.91-1,2.32-1.49,4-.69,4.36.52.65,2.88-.07,4.89-1.17,2.37-1.3,6.87-7.09,6.87-7.09l9.11-10.46a12.14,12.14,0,0,1,3.44-3c.93-.42,2.17-1.05,1.45.92-1,2.86-2.63,7.52-3.59,10.55a18.57,18.57,0,0,0-.92,4.87,5.38,5.38,0,0,0,.31,2.85c.55,1,2.4,1.37,2.4,1.37s.64.37,2-.68a7.17,7.17,0,0,0,1.69-3.21l1.14-3.6,2.83-8,.76-2.75-2.92,10.8c-1.08,3.5-1.5,6-1.15,7.24a5.1,5.1,0,0,0,2.35,1.37s1.83.34,2.64-.47a3.65,3.65,0,0,0,1.38-2.28l1.37-3.78,1.72-4.7,2.18-5.74-4.24,13.3a4.71,4.71,0,0,0,0,3.29,3,3,0,0,0,1.64,1.07,7.46,7.46,0,0,0,3.21-.57c1.47-.75,2.47-2.4,3.44-4.13l3.44-6.31,2.07-4.12.91-1.38,12.84-13.07a49.34,49.34,0,0,0,3.67-4.82c.62-1.45-.45-2.82-1.49-4.58a12.06,12.06,0,0,0-4-3C156.86,1.25,154.84,1.52,153.42,1.74Z"/><path class="cls-1" d="M113.36,29.57a71.3,71.3,0,0,0,1.82,8.34c.66,2.56,1.15,4.53,2.35,5.56,1.48,1.27,3.32-1.38,3.32-1.38"/><path class="cls-1" d="M120.17,13.3c8.65-.23,16.91,4,20.75,7.07"/><path class="cls-1" d="M20.18,15.45c-25.54,6.07-26.93,48.38,0,55"/><path class="cls-1" d="M168.36,15.45c25.54,6.07,26.93,48.38,0,55"/><text/><text class="cls-2" transform="translate(27.82 80.21)">SINABRO</text><path class="cls-1" d="M35.12.74C43.7,1.79,68,7.85,68,7.85a8.54,8.54,0,0,1,3.56,1.26A8.36,8.36,0,0,1,74.22,12C80.29,21.56,85.72,29.91,91,37.88c1,2.32,1.49,4,.69,4.36-.52.65-2.87-.07-4.88-1.17C84.39,39.77,79.89,34,79.89,34L70.78,23.52a12.3,12.3,0,0,0-3.44-3c-.93-.42-2.18-1.05-1.46.92C66.93,24.31,68.51,29,69.48,32a18.35,18.35,0,0,1,.91,4.87,5.26,5.26,0,0,1-.3,2.85c-.56,1-2.41,1.37-2.41,1.37s-.63.37-2-.68a7.28,7.28,0,0,1-1.68-3.21L62.9,33.6l-2.82-8-.77-2.75,2.92,10.8c1.08,3.5,1.51,6,1.15,7.24A5.06,5.06,0,0,1,61,42.24s-1.83.34-2.64-.47A3.6,3.6,0,0,1,57,39.49l-1.38-3.78L53.92,31l-2.18-5.74L56,38.57a4.71,4.71,0,0,1,0,3.29,3,3,0,0,1-1.64,1.07,7.48,7.48,0,0,1-3.21-.57c-1.46-.75-2.47-2.4-3.44-4.13l-3.44-6.31L42.23,27.8l-.92-1.38L28.47,13.35A49.34,49.34,0,0,1,24.8,8.53c-.61-1.45.46-2.82,1.49-4.58a12.06,12.06,0,0,1,4-3C31.68.25,33.7.52,35.12.74Z"/><path class="cls-1" d="M75.18,28.57a75.71,75.71,0,0,1-1.82,8.34c-.66,2.56-1.15,4.53-2.35,5.56-1.48,1.27-3.33-1.38-3.33-1.38"/><path class="cls-1" d="M68.37,12.3c-8.66-.23-16.91,4-20.75,7.07"/></g></g></svg>